<!-- assets/icons.svg -->
<svg xmlns="http://www.w3.org/2000/svg" style="display: none;">
  
  <symbol id="cloud" viewBox="0 -960 960 960">
    <path d="M260-160q-91 0-155.5-63T40-377q0-78 47-139t123-78q25-92 100-149t170-57q117 0 198.5 81.5T760-520q69 8 114.5 59.5T920-340q0 75-52.5 127.5T740-160H260Zm0-80h480q42 0 71-29t29-71q0-42-29-71t-71-29h-60v-80q0-83-58.5-141.5T480-720q-83 0-141.5 58.5T280-520h-20q-58 0-99 41t-41 99q0 58 41 99t99 41Zm220-240Z"/>
  </symbol>

  <symbol id="partly-cloudy" viewBox="0 -960 960 960">
    <path d="M440-760v-160h80v160h-80Zm266 110-56-56 113-114 56 57-113 113Zm54 210v-80h160v80H760Zm3 299L650-254l56-56 114 112-57 57ZM254-650 141-763l57-57 112 114-56 56Zm-14 450h180q25 0 42.5-17.5T480-260q0-25-17-42.5T421-320h-51l-20-48q-14-33-44-52.5T240-440q-50 0-85 35t-35 85q0 50 35 85t85 35Zm0 80q-83 0-141.5-58.5T40-320q0-83 58.5-141.5T240-520q60 0 109.5 32.5T423-400q58 0 97.5 43T560-254q-2 57-42.5 95.5T420-120H240Zm320-134q-5-20-10-39t-10-39q45-19 72.5-59t27.5-89q0-66-47-113t-113-47q-60 0-105 39t-53 99q-20-5-41-9t-41-9q14-88 82.5-144T480-720q100 0 170 70t70 170q0 77-44 138.5T560-254Zm-79-226Z"/>
  </symbol>

  <symbol id="image" viewBox="0 0 24 24">
    <path d="M21 3H3C2 3 1 4 1 5v14c0 1.1.9 2 2 2h18c1 0 2-1 2-2V5c0-1-1-2-2-2zM5 17l3.5-4.5 2.5 3.01L14.5 11l4.5 6H5z"/>
  </symbol>

  <symbol id="help" viewBox="0 -960 960 960">
    <path d="M424-320q0-81 14.5-116.5T500-514q41-36 62.5-62.5T584-637q0-41-27.5-68T480-732q-51 0-77.5 31T365-638l-103-44q21-64 77-111t141-47q105 0 161.5 58.5T698-641q0 50-21.5 85.5T609-475q-49 47-59.5 71.5T539-320H424Zm56 240q-33 0-56.5-23.5T400-160q0-33 23.5-56.5T480-240q33 0 56.5 23.5T560-160q0 33-23.5 56.5T480-80Z"/>
  </symbol>

  <symbol id="search" viewBox="0 -960 960 960">
    <path d="M784-120 532-372q-30 24-69 38t-83 14q-109 0-184.5-75.5T120-580q0-109 75.5-184.5T380-840q109 0 184.5 75.5T640-580q0 44-14 83t-38 69l252 252-56 56ZM380-400q75 0 127.5-52.5T560-580q0-75-52.5-127.5T380-760q-75 0-127.5 52.5T200-580q0 75 52.5 127.5T380-400Z"/>
  </symbol>

  <symbol id="sort-alpha" viewBox="0 -960 960 960">
    <path d="m80-280 150-400h86l150 400h-82l-34-96H196l-32 96H80Zm140-164h104l-48-150h-6l-50 150Zm328 164v-76l202-252H556v-72h282v76L638-352h202v72H548ZM360-760l120-120 120 120H360ZM480-80 360-200h240L480-80Z"/>
  </symbol>

  <symbol id="sunny" viewBox="0 -960 960 960">
    <path d="M440-760v-160h80v160h-80Zm266 110-55-55 112-115 56 57-113 113Zm54 210v-80h160v80H760ZM440-40v-160h80v160h-80ZM254-652 140-763l57-56 113 113-56 54Zm508 512L651-255l54-54 114 110-57 59ZM40-440v-80h160v80H40Zm157 300-56-57 112-112 29 27 29 28-114 114Zm283-100q-100 0-170-70t-70-170q0-100 70-170t170-70q100 0 170 70t70 170q0 100-70 170t-170 70Zm0-80q66 0 113-47t47-113q0-66-47-113t-113-47q-66 0-113 47t-47 113q0 66 47 113t113 47Zm0-160Z"/>
  </symbol>

</svg>